<svg width="224" height="224" viewBox="0 0 224 224" fill="none" xmlns="http://www.w3.org/2000/svg">
<path d="M112 -0.00012207C50.4789 -0.00012207 3.05176e-05 50.4787 3.05176e-05 112C3.05176e-05 173.521 50.4789 224 112 224C173.521 224 224 174.31 224 112C224 50.4787 173.521 -0.00012207 112 -0.00012207ZM67.0423 64.6759C74.9296 64.6759 81.2395 70.9858 81.2395 78.8731C81.2395 86.7604 74.9296 93.0703 67.0423 93.0703C59.155 93.0703 52.8451 86.7604 52.8451 78.8731C52.8451 71.7745 59.155 64.6759 67.0423 64.6759ZM181.408 105.69C179.042 106.479 177.465 107.267 175.099 107.267H156.958V127.775C156.958 156.958 134.873 181.408 106.479 182.986C75.7183 184.563 53.6338 161.69 52.8451 127.775V118.31C52.8451 110.422 59.155 103.324 66.2536 103.324C74.1409 103.324 81.2395 109.634 81.2395 117.521V127.775C82.0282 142.76 91.493 154.591 103.324 154.591C115.155 154.591 124.62 142.76 124.62 122.253L123.831 51.2675C123.831 42.5914 130.141 36.2816 138.817 35.4928C139.606 35.4928 147.493 33.9154 152.225 38.6478C156.958 42.5914 185.352 79.6618 185.352 79.6618C185.352 79.6618 189.296 85.183 189.296 91.4928C190.085 98.5914 186.93 103.324 181.408 105.69Z" fill="#9B292B"/>
</svg>
