<svg xmlns="http://www.w3.org/2000/svg" xmlns:xlink="http://www.w3.org/1999/xlink" width="500" zoomAndPan="magnify" viewBox="0 0 375 374.999991" height="500" preserveAspectRatio="xMidYMid meet" version="1.0"><defs><g/></defs><g fill="#000000" fill-opacity="1"><g transform="translate(230.901537, 186.31235)"><g><path d="M 19.796875 -42.71875 L 27.796875 -42.71875 C 30.878906 -42.71875 33.253906 -41.613281 34.921875 -39.40625 C 36.585938 -37.195312 37.054688 -34.53125 36.328125 -31.40625 L 35.609375 -28.328125 L 26.828125 -28.328125 L 27.546875 -31.40625 C 27.671875 -32.039062 27.5625 -32.597656 27.21875 -33.078125 C 26.875 -33.566406 26.382812 -33.8125 25.75 -33.8125 L 17.75 -33.8125 C 17.0625 -33.8125 16.414062 -33.578125 15.8125 -33.109375 C 15.21875 -32.648438 14.859375 -32.082031 14.734375 -31.40625 L 10.046875 -11.3125 C 9.921875 -10.625 10.039062 -10.050781 10.40625 -9.59375 C 10.769531 -9.132812 11.289062 -8.90625 11.96875 -8.90625 L 19.96875 -8.90625 C 20.613281 -8.90625 21.222656 -9.144531 21.796875 -9.625 C 22.378906 -10.101562 22.734375 -10.664062 22.859375 -11.3125 L 23.875 -15.703125 L 32.671875 -15.703125 L 31.640625 -11.3125 C 30.921875 -8.1875 29.226562 -5.519531 26.5625 -3.3125 C 23.894531 -1.101562 21.015625 0 17.921875 0 L 9.921875 0 C 6.796875 0 4.378906 -1.101562 2.671875 -3.3125 C 0.972656 -5.519531 0.484375 -8.1875 1.203125 -11.3125 L 5.890625 -31.40625 C 6.617188 -34.53125 8.332031 -37.195312 11.03125 -39.40625 C 13.738281 -41.613281 16.660156 -42.71875 19.796875 -42.71875 Z M 19.796875 -42.71875 "/></g></g></g><g fill="#000000" fill-opacity="1"><g transform="translate(267.717144, 186.31235)"><g><path d="M 19.078125 -42.71875 L 27.1875 -42.71875 C 30.28125 -42.71875 32.664062 -41.601562 34.34375 -39.375 C 36.03125 -37.144531 36.535156 -34.488281 35.859375 -31.40625 L 31.15625 -11.25 C 30.4375 -8.164062 28.722656 -5.519531 26.015625 -3.3125 C 23.304688 -1.101562 20.410156 0 17.328125 0 L 9.203125 0 C 6.117188 0 3.722656 -1.101562 2.015625 -3.3125 C 0.304688 -5.519531 -0.179688 -8.164062 0.546875 -11.25 L 5.234375 -31.40625 C 5.921875 -34.488281 7.625 -37.144531 10.34375 -39.375 C 13.070312 -41.601562 15.984375 -42.71875 19.078125 -42.71875 Z M 25.140625 -33.75 L 17.03125 -33.75 C 16.382812 -33.75 15.769531 -33.515625 15.1875 -33.046875 C 14.601562 -32.585938 14.253906 -32.039062 14.140625 -31.40625 L 9.453125 -11.25 C 9.328125 -10.601562 9.4375 -10.050781 9.78125 -9.59375 C 10.125 -9.132812 10.613281 -8.90625 11.25 -8.90625 L 19.375 -8.90625 C 20.007812 -8.90625 20.617188 -9.132812 21.203125 -9.59375 C 21.785156 -10.050781 22.140625 -10.601562 22.265625 -11.25 L 26.953125 -31.40625 C 27.078125 -32.039062 26.96875 -32.585938 26.625 -33.046875 C 26.28125 -33.515625 25.785156 -33.75 25.140625 -33.75 Z M 25.140625 -33.75 "/></g></g></g><g fill="#000000" fill-opacity="1"><g transform="translate(303.329633, 186.31235)"><g><path d="M 8.546875 -42.71875 L 27.859375 -42.71875 C 30.984375 -42.71875 33.394531 -41.613281 35.09375 -39.40625 C 36.800781 -37.195312 37.296875 -34.550781 36.578125 -31.46875 L 31.890625 -11.1875 C 31.160156 -8.101562 29.441406 -5.46875 26.734375 -3.28125 C 24.035156 -1.09375 21.117188 0 17.984375 0 L -1.328125 0 Z M 15.40625 -33.75 L 9.625 -8.90625 L 20.03125 -8.90625 C 20.675781 -8.90625 21.296875 -9.132812 21.890625 -9.59375 C 22.492188 -10.050781 22.859375 -10.582031 22.984375 -11.1875 L 27.671875 -31.46875 C 27.796875 -32.0625 27.675781 -32.585938 27.3125 -33.046875 C 26.945312 -33.515625 26.445312 -33.75 25.8125 -33.75 Z M 15.40625 -33.75 "/></g></g></g><g fill="#000000" fill-opacity="1"><g transform="translate(340.325713, 186.31235)"><g><path d="M 32.546875 -33.875 L 17.75 -33.875 C 17.0625 -33.875 16.4375 -33.640625 15.875 -33.171875 C 15.320312 -32.710938 14.960938 -32.144531 14.796875 -31.46875 L 12.6875 -22.3125 L 26.59375 -25.8125 L 24.484375 -16.609375 L 10.59375 -13.171875 L 10.109375 -11.3125 C 9.984375 -10.664062 10.101562 -10.113281 10.46875 -9.65625 C 10.832031 -9.195312 11.332031 -8.96875 11.96875 -8.96875 L 26.828125 -8.96875 L 24.78125 0 L 9.921875 0 C 6.796875 0 4.378906 -1.101562 2.671875 -3.3125 C 0.972656 -5.519531 0.484375 -8.1875 1.203125 -11.3125 L 5.890625 -31.46875 C 6.617188 -34.550781 8.328125 -37.195312 11.015625 -39.40625 C 13.703125 -41.613281 16.628906 -42.71875 19.796875 -42.71875 L 34.59375 -42.71875 Z M 32.546875 -33.875 "/></g></g></g><g fill="#000000" fill-opacity="1"><g transform="translate(0.0000045, 325.283756)"><g><path d="M 124.65625 -126.671875 L 4.859375 -285.734375 L 103.609375 -285.734375 L 178.890625 -186.171875 L 270.359375 -285.734375 L 307.984375 -285.734375 L 195.890625 -163.5 L 318.921875 0 L 220.171875 0 L 141.65625 -104.015625 L 46.546875 0 L 8.90625 0 Z M 273.59375 -21.453125 L 90.65625 -264.28125 L 50.1875 -264.28125 L 233.125 -21.453125 Z M 273.59375 -21.453125 "/></g></g></g></svg>