<svg xmlns="http://www.w3.org/2000/svg" xmlns:xlink="http://www.w3.org/1999/xlink" width="500" zoomAndPan="magnify" viewBox="0 0 375 374.999991" height="500" preserveAspectRatio="xMidYMid meet" version="1.0"><defs><g/><clipPath id="0310247ce0"><path d="M 11.105469 13.488281 L 261.355469 13.488281 L 261.355469 330.464844 L 11.105469 330.464844 Z M 11.105469 13.488281 " clip-rule="nonzero"/></clipPath><clipPath id="e9b0a3b80b"><path d="M 307.125 134.621094 L 338.980469 134.621094 L 338.980469 166.476562 L 307.125 166.476562 Z M 307.125 134.621094 " clip-rule="nonzero"/></clipPath><clipPath id="ea26c9fb43"><path d="M 314.625 134.621094 L 331.480469 134.621094 C 333.472656 134.621094 335.378906 135.410156 336.785156 136.820312 C 338.191406 138.226562 338.980469 140.132812 338.980469 142.121094 L 338.980469 158.976562 C 338.980469 160.964844 338.191406 162.875 336.785156 164.28125 C 335.378906 165.6875 333.472656 166.476562 331.480469 166.476562 L 314.625 166.476562 C 312.636719 166.476562 310.730469 165.6875 309.324219 164.28125 C 307.917969 162.875 307.125 160.964844 307.125 158.976562 L 307.125 142.121094 C 307.125 140.132812 307.917969 138.226562 309.324219 136.820312 C 310.730469 135.410156 312.636719 134.621094 314.625 134.621094 Z M 314.625 134.621094 " clip-rule="nonzero"/></clipPath></defs><g clip-path="url(#0310247ce0)"><path fill="#000000" d="M 60.472656 33.734375 L 80.117188 72.742188 L 101.5 115.207031 L 125.996094 112.203125 L 173.253906 106.40625 L 188.984375 75.171875 L 208.625 36.164062 C 205.105469 34.417969 202.683594 30.789062 202.683594 26.59375 C 202.683594 20.699219 207.464844 15.917969 213.359375 15.917969 C 219.253906 15.917969 224.035156 20.699219 224.035156 26.59375 C 224.035156 32.488281 219.253906 37.269531 213.359375 37.269531 C 212.21875 37.269531 211.121094 37.089844 210.09375 36.757812 L 194.59375 76.28125 L 183.257812 105.179688 L 209.628906 101.941406 C 227.046875 99.808594 243.058594 105.957031 254.535156 117.601562 C 257.046875 120.148438 259.328125 122.945312 261.355469 125.957031 C 254.992188 124.308594 248.195312 123.820312 241.167969 124.679688 C 212.015625 128.257812 184.15625 131.675781 157.53125 134.941406 C 132.015625 138.066406 107.546875 141.066406 84.074219 143.945312 C 70.9375 145.554688 59.765625 153.707031 52.382812 165.289062 C 45.1875 176.582031 41.546875 191.15625 42.933594 206.402344 C 44.472656 223.304688 45.980469 239.90625 47.457031 256.164062 C 48.914062 272.160156 50.34375 287.871094 51.742188 303.28125 C 52.652344 313.296875 56.011719 322.625 61.046875 330.464844 C 51.289062 328.519531 42.355469 323.050781 35.363281 315.371094 C 27.121094 306.324219 21.429688 294.058594 20.203125 280.542969 C 18.800781 265.136719 17.371094 249.421875 15.917969 233.425781 C 14.441406 217.167969 12.933594 200.566406 11.394531 183.667969 C 10.007812 168.417969 13.648438 153.84375 20.84375 142.550781 C 28.226562 130.96875 39.398438 122.816406 52.535156 121.207031 L 91.222656 116.464844 L 74.507812 73.851562 L 59.003906 34.332031 C 57.976562 34.660156 56.878906 34.839844 55.738281 34.839844 C 49.84375 34.839844 45.0625 30.058594 45.0625 24.164062 C 45.0625 18.269531 49.84375 13.488281 55.738281 13.488281 C 61.632812 13.488281 66.414062 18.269531 66.414062 24.164062 C 66.414062 28.359375 63.992188 31.988281 60.472656 33.734375 " fill-opacity="1" fill-rule="evenodd"/></g><g fill="#000000" fill-opacity="1"><g transform="translate(61.645138, 302.402103)"><g><path d="M 67.703125 -33.484375 L 48.25 -33.484375 L 48.25 0 L 12.609375 0 L 12.609375 -126.046875 L 70.21875 -126.046875 C 81.625 -126.046875 91.53125 -124.15625 99.9375 -120.375 C 108.34375 -116.59375 114.820312 -111.1875 119.375 -104.15625 C 123.9375 -97.132812 126.21875 -88.882812 126.21875 -79.40625 C 126.21875 -70.28125 124.085938 -62.328125 119.828125 -55.546875 C 115.566406 -48.765625 109.476562 -43.453125 101.5625 -39.609375 L 128.75 0 L 90.578125 0 Z M 90.21875 -79.40625 C 90.21875 -85.289062 88.351562 -89.851562 84.625 -93.09375 C 80.90625 -96.332031 75.382812 -97.953125 68.0625 -97.953125 L 48.25 -97.953125 L 48.25 -61.046875 L 68.0625 -61.046875 C 75.382812 -61.046875 80.90625 -62.632812 84.625 -65.8125 C 88.351562 -68.988281 90.21875 -73.519531 90.21875 -79.40625 Z M 90.21875 -79.40625 "/></g></g></g><g fill="#000000" fill-opacity="1"><g transform="translate(181.360004, 302.402103)"><g><path d="M 126.40625 0 L 126.046875 -66.796875 L 93.625 -12.421875 L 77.78125 -12.421875 L 45.5625 -65 L 45.5625 0 L 12.609375 0 L 12.609375 -126.046875 L 41.953125 -126.046875 L 86.25 -53.296875 L 129.46875 -126.046875 L 158.8125 -126.046875 L 159.171875 0 Z M 126.40625 0 "/></g></g></g><g clip-path="url(#e9b0a3b80b)"><g clip-path="url(#ea26c9fb43)"><path fill="#ff5757" d="M 307.125 134.621094 L 338.980469 134.621094 L 338.980469 166.476562 L 307.125 166.476562 Z M 307.125 134.621094 " fill-opacity="1" fill-rule="nonzero"/></g></g><g fill="#ffffff" fill-opacity="1"><g transform="translate(311.647076, 156.530082)"><g><path d="M 7.515625 0.25 C 6.191406 0.25 5.007812 -0.0234375 3.96875 -0.578125 C 2.925781 -1.140625 2.101562 -1.914062 1.5 -2.90625 C 0.90625 -3.894531 0.609375 -5.015625 0.609375 -6.265625 C 0.609375 -7.523438 0.90625 -8.648438 1.5 -9.640625 C 2.101562 -10.628906 2.925781 -11.398438 3.96875 -11.953125 C 5.007812 -12.515625 6.191406 -12.796875 7.515625 -12.796875 C 8.660156 -12.796875 9.691406 -12.59375 10.609375 -12.1875 C 11.523438 -11.78125 12.289062 -11.195312 12.90625 -10.4375 L 10.640625 -8.390625 C 9.828125 -9.367188 8.84375 -9.859375 7.6875 -9.859375 C 7.007812 -9.859375 6.40625 -9.707031 5.875 -9.40625 C 5.34375 -9.113281 4.925781 -8.691406 4.625 -8.140625 C 4.332031 -7.597656 4.1875 -6.972656 4.1875 -6.265625 C 4.1875 -5.566406 4.332031 -4.941406 4.625 -4.390625 C 4.925781 -3.847656 5.34375 -3.425781 5.875 -3.125 C 6.40625 -2.832031 7.007812 -2.6875 7.6875 -2.6875 C 8.84375 -2.6875 9.828125 -3.175781 10.640625 -4.15625 L 12.90625 -2.109375 C 12.289062 -1.347656 11.523438 -0.765625 10.609375 -0.359375 C 9.691406 0.046875 8.660156 0.25 7.515625 0.25 Z M 7.515625 0.25 "/></g></g></g><g fill="#ffffff" fill-opacity="1"><g transform="translate(323.522963, 156.530082)"><g><path d="M 1.25 -12.546875 L 4.796875 -12.546875 L 4.796875 -2.8125 L 10.78125 -2.8125 L 10.78125 0 L 1.25 0 Z M 1.25 -12.546875 "/></g></g></g></svg>